# xmcd
#
# Track frame offsets:
#	150
#	3038
#	12390
#	23897
#	35802
#	44645
#	54900
#	70909
#	84515
#	98203
#
# Disc length: 1494 seconds
#
# Revision: 0
# Processed by: cddbd v1.5.1PL0 Copyright (c) Steve Scherf et al.
# Submitted via: dBpowerAMP V4.0
#
DISCID=7805d40a
DTITLE=Headed For The Hills Bluegrass Band - Headed For The Hills
DYEAR=2004
DGENRE=Bluegrass
TTITLE0=Shuckin' The Corn
TTITLE1=Reuben
TTITLE2=Goin' To The Races
TTITLE3=Swing Low
TTITLE4=Salt Creek
TTITLE5=Shady Grove
TTITLE6=Roll In My Sweet Baby's Arm
TTITLE7=More Pretty Girls
TTITLE8=Cripple Creek
TTITLE9=Dark Hollow
EXTD=
EXTT0=
EXTT1=
EXTT2=
EXTT3=
EXTT4=
EXTT5=
EXTT6=
EXTT7=
EXTT8=
EXTT9=
PLAYORDER=
